<mxfile host="Electron" agent="Mozilla/5.0 (Windows NT 10.0; Win64; x64) AppleWebKit/537.36 (KHTML, like Gecko) draw.io/26.0.4 Chrome/128.0.6613.186 Electron/32.2.5 Safari/537.36" version="26.0.4">
  <diagram name="Seite-1" id="55V-Y7fTnxBLsb3qEASi">
    <mxGraphModel dx="683" dy="398" grid="1" gridSize="10" guides="1" tooltips="1" connect="1" arrows="1" fold="1" page="1" pageScale="1" pageWidth="827" pageHeight="1169" math="0" shadow="0">
      <root>
        <mxCell id="0" />
        <mxCell id="1" parent="0" />
        <mxCell id="LM64Yr8HxtxG-eWwsfxx-7" value="" style="rounded=1;whiteSpace=wrap;html=1;" vertex="1" parent="1">
          <mxGeometry x="150" y="115" width="335" height="220" as="geometry" />
        </mxCell>
        <mxCell id="LM64Yr8HxtxG-eWwsfxx-11" value="" style="rounded=1;whiteSpace=wrap;html=1;" vertex="1" parent="1">
          <mxGeometry x="165" y="145" width="100" height="175" as="geometry" />
        </mxCell>
        <mxCell id="LM64Yr8HxtxG-eWwsfxx-1" value="&lt;b&gt;Document&lt;/b&gt;&lt;div&gt;&lt;b&gt;Store&lt;/b&gt;&lt;/div&gt;&lt;div&gt;&lt;b&gt;&lt;br&gt;&lt;/b&gt;&lt;/div&gt;&lt;div&gt;doc_id&lt;/div&gt;&lt;div&gt;text&lt;/div&gt;&lt;div&gt;&lt;b&gt;&lt;br&gt;&lt;/b&gt;&lt;/div&gt;" style="shape=cylinder3;whiteSpace=wrap;html=1;boundedLbl=1;backgroundOutline=1;size=15;" vertex="1" parent="1">
          <mxGeometry x="180" y="175" width="70" height="130" as="geometry" />
        </mxCell>
        <mxCell id="LM64Yr8HxtxG-eWwsfxx-2" value="&lt;b&gt;Query&lt;/b&gt;&lt;div&gt;&lt;b&gt;Store&lt;/b&gt;&lt;/div&gt;&lt;div&gt;&lt;b&gt;&lt;br&gt;&lt;/b&gt;&lt;/div&gt;&lt;div&gt;query_id&lt;/div&gt;&lt;div&gt;text&lt;/div&gt;" style="shape=cylinder3;whiteSpace=wrap;html=1;boundedLbl=1;backgroundOutline=1;size=15;" vertex="1" parent="1">
          <mxGeometry x="290" y="175" width="70" height="130" as="geometry" />
        </mxCell>
        <mxCell id="LM64Yr8HxtxG-eWwsfxx-3" value="&lt;b&gt;Qrel&lt;/b&gt;&lt;div&gt;&lt;b&gt;Store&lt;/b&gt;&lt;/div&gt;&lt;div&gt;&lt;b&gt;&lt;br&gt;&lt;/b&gt;&lt;/div&gt;&lt;div&gt;query_id&lt;/div&gt;&lt;div&gt;doc_id&lt;/div&gt;&lt;div&gt;relevance&lt;/div&gt;" style="shape=cylinder3;whiteSpace=wrap;html=1;boundedLbl=1;backgroundOutline=1;size=15;" vertex="1" parent="1">
          <mxGeometry x="400" y="175" width="70" height="130" as="geometry" />
        </mxCell>
        <mxCell id="LM64Yr8HxtxG-eWwsfxx-12" value="Corpora" style="text;html=1;align=center;verticalAlign=middle;resizable=0;points=[];autosize=1;strokeColor=none;fillColor=none;fontStyle=1" vertex="1" parent="1">
          <mxGeometry x="180" y="145" width="70" height="30" as="geometry" />
        </mxCell>
        <mxCell id="LM64Yr8HxtxG-eWwsfxx-13" value="&lt;b&gt;Retrieval Task&lt;/b&gt;" style="text;html=1;align=center;verticalAlign=middle;resizable=0;points=[];autosize=1;strokeColor=none;fillColor=none;" vertex="1" parent="1">
          <mxGeometry x="275" y="115" width="100" height="30" as="geometry" />
        </mxCell>
      </root>
    </mxGraphModel>
  </diagram>
</mxfile>
